<?xml version="1.0" encoding="UTF-8"?>
<!DOCTYPE svg PUBLIC "-//W3C//DTD SVG 1.1//EN" "http://www.w3.org/Graphics/SVG/1.1/DTD/svg11.dtd">
<svg width="160mm" height="90mm" viewBox="0 0 16000 9000" version="1.1" baseProfile="tiny" xmlns="http://www.w3.org/2000/svg" stroke-width="28.222" stroke-linejoin="round" xml:space="preserve">
 <path fill="rgb(255,255,255)" stroke="none" d="M 8000,8999 L 0,8999 0,0 15999,0 15999,8999 8000,8999 Z"/>
 <path fill="none" stroke="rgb(179,179,179)" stroke-linejoin="round" d="M 6807,7191 L 2058,7191 2058,379 11555,379 11555,7191 6807,7191 Z"/>
 <path fill="none" stroke="rgb(179,179,179)" stroke-linejoin="round" d="M 11555,7190 L 2058,7190"/>
 <path fill="none" stroke="rgb(179,179,179)" stroke-linejoin="round" d="M 11555,5827 L 2058,5827"/>
 <path fill="none" stroke="rgb(179,179,179)" stroke-linejoin="round" d="M 11555,4465 L 2058,4465"/>
 <path fill="none" stroke="rgb(179,179,179)" stroke-linejoin="round" d="M 11555,3103 L 2058,3103"/>
 <path fill="none" stroke="rgb(179,179,179)" stroke-linejoin="round" d="M 11555,1740 L 2058,1740"/>
 <path fill="none" stroke="rgb(179,179,179)" stroke-linejoin="round" d="M 11555,378 L 2058,378"/>
 <path fill="none" stroke="rgb(179,179,179)" stroke-linejoin="round" d="M 2058,7340 L 2058,7190"/>
 <path fill="none" stroke="rgb(179,179,179)" stroke-linejoin="round" d="M 2058,7340 L 2058,7190"/>
 <path fill="none" stroke="rgb(179,179,179)" stroke-linejoin="round" d="M 3957,7340 L 3957,7190"/>
 <path fill="none" stroke="rgb(179,179,179)" stroke-linejoin="round" d="M 3957,7340 L 3957,7190"/>
 <path fill="none" stroke="rgb(179,179,179)" stroke-linejoin="round" d="M 5857,7340 L 5857,7190"/>
 <path fill="none" stroke="rgb(179,179,179)" stroke-linejoin="round" d="M 5857,7340 L 5857,7190"/>
 <path fill="none" stroke="rgb(179,179,179)" stroke-linejoin="round" d="M 7756,7340 L 7756,7190"/>
 <path fill="none" stroke="rgb(179,179,179)" stroke-linejoin="round" d="M 7756,7340 L 7756,7190"/>
 <path fill="none" stroke="rgb(179,179,179)" stroke-linejoin="round" d="M 9655,7340 L 9655,7190"/>
 <path fill="none" stroke="rgb(179,179,179)" stroke-linejoin="round" d="M 9655,7340 L 9655,7190"/>
 <path fill="none" stroke="rgb(179,179,179)" stroke-linejoin="round" d="M 11555,7340 L 11555,7190"/>
 <path fill="none" stroke="rgb(179,179,179)" stroke-linejoin="round" d="M 11555,7340 L 11555,7190"/>
 <path fill="none" stroke="rgb(179,179,179)" stroke-linejoin="round" d="M 2058,7190 L 11555,7190"/>
 <path fill="none" stroke="rgb(179,179,179)" stroke-linejoin="round" d="M 1908,7190 L 2058,7190"/>
 <path fill="none" stroke="rgb(179,179,179)" stroke-linejoin="round" d="M 1908,7190 L 2058,7190"/>
 <path fill="none" stroke="rgb(179,179,179)" stroke-linejoin="round" d="M 1908,5827 L 2058,5827"/>
 <path fill="none" stroke="rgb(179,179,179)" stroke-linejoin="round" d="M 1908,5827 L 2058,5827"/>
 <path fill="none" stroke="rgb(179,179,179)" stroke-linejoin="round" d="M 1908,4465 L 2058,4465"/>
 <path fill="none" stroke="rgb(179,179,179)" stroke-linejoin="round" d="M 1908,4465 L 2058,4465"/>
 <path fill="none" stroke="rgb(179,179,179)" stroke-linejoin="round" d="M 1908,3103 L 2058,3103"/>
 <path fill="none" stroke="rgb(179,179,179)" stroke-linejoin="round" d="M 1908,3103 L 2058,3103"/>
 <path fill="none" stroke="rgb(179,179,179)" stroke-linejoin="round" d="M 1908,1740 L 2058,1740"/>
 <path fill="none" stroke="rgb(179,179,179)" stroke-linejoin="round" d="M 1908,1740 L 2058,1740"/>
 <path fill="none" stroke="rgb(179,179,179)" stroke-linejoin="round" d="M 1908,378 L 2058,378"/>
 <path fill="none" stroke="rgb(179,179,179)" stroke-linejoin="round" d="M 1908,378 L 2058,378"/>
 <path fill="none" stroke="rgb(179,179,179)" stroke-linejoin="round" d="M 2058,7190 L 2058,378"/>
 <path fill="none" stroke="rgb(126,0,33)" stroke-width="80" stroke-linejoin="round" d="M 2247,446 L 2437,523 2627,603 2817,682 3007,767 3197,847 3387,928 3577,1005 3767,1081 3957,1154 4147,1229 4337,1306 4527,1386 4717,1467 4907,1549 5097,1636 5287,1728 5477,1828 5667,1948 5857,2079 6047,2230 6237,2394 6427,2579 6617,2794 6807,3044 6996,3325 7186,3626 7376,3934 7566,4246 7756,4571 7946,4888 8135,5193 8325,5471 8515,5722 8705,5944 8895,6138 9085,6303 9275,6436 9465,6546 9655,6632 9845,6697 10035,6749 10225,6792 10415,6828 10605,6863 10795,6893 10985,6920 11175,6946 11365,6971"/>
 <path fill="none" stroke="rgb(87,157,28)" stroke-width="80" stroke-linejoin="round" d="M 2247,447 L 2437,520 2627,603 2817,681 3007,762 3197,848 3387,939 3577,1025 3767,1113 3957,1207 4147,1307 4337,1406 4527,1516 4717,1631 4907,1757 5097,1884 5287,2034 5477,2210 5667,2405 5857,2625 6047,2871 6237,3137 6427,3446 6617,3784 6807,4160 6996,4535 7186,4889 7376,5219 7566,5518 7756,5785 7946,6019 8135,6215 8325,6377 8515,6503 8705,6598 8895,6675 9085,6732 9275,6778 9465,6814 9655,6846 9845,6875 10035,6903 10225,6928 10415,6951 10605,6974 10795,6997 10985,7014 11175,7027 11365,7038"/>
 <path fill="none" stroke="rgb(255,211,32)" stroke-width="80" stroke-linejoin="round" d="M 2247,446 L 2437,521 2627,594 2817,677 3007,759 3197,853 3387,946 3577,1040 3767,1133 3957,1221 4147,1316 4337,1413 4527,1509 4717,1605 4907,1713 5097,1830 5287,1956 5477,2103 5667,2283 5857,2492 6047,2721 6237,2995 6427,3300 6617,3612 6807,3931 6996,4245 7186,4552 7376,4850 7566,5141 7756,5416 7946,5669 8135,5901 8325,6106 8515,6277 8705,6413 8895,6527 9085,6618 9275,6691 9465,6748 9655,6790 9845,6826 10035,6860 10225,6891 10415,6917 10605,6941 10795,6963 10985,6983 11175,7000 11365,7015"/>
 <path fill="none" stroke="rgb(255,66,14)" stroke-width="80" stroke-linejoin="round" d="M 2247,446 L 2437,516 2627,592 2817,671 3007,752 3197,833 3387,917 3577,998 3767,1085 3957,1178 4147,1274 4337,1369 4527,1470 4717,1579 4907,1693 5097,1816 5287,1949 5477,2095 5667,2255 5857,2432 6047,2640 6237,2864 6427,3111 6617,3387 6807,3703 6996,4041 7186,4397 7376,4754 7566,5103 7756,5434 7946,5728 8135,5978 8325,6189 8515,6360 8705,6500 8895,6603 9085,6685 9275,6750 9465,6800 9655,6840 9845,6875 10035,6906 10225,6935 10415,6963 10605,6988 10795,7007 10985,7024 11175,7036 11365,7045"/>
 <path fill="none" stroke="rgb(0,69,134)" stroke-width="80" stroke-linejoin="round" d="M 2247,446 L 2437,522 2627,603 2817,689 3007,780 3197,872 3387,968 3577,1066 3767,1173 3957,1280 4147,1400 4337,1526 4527,1671 4717,1828 4907,1991 5097,2180 5287,2380 5477,2605 5667,2880 5857,3227 6047,3592 6237,3988 6427,4386 6617,4797 6807,5179 6996,5521 7186,5789 7376,6014 7566,6199 7756,6354 7946,6484 8135,6585 8325,6668 8515,6731 8705,6777 8895,6817 9085,6851 9275,6881 9465,6908 9655,6934 9845,6960 10035,6982 10225,7000 10415,7016 10605,7029 10795,7039 10985,7046 11175,7050 11365,7053"/>
 <text class="TextShape"><tspan class="TextParagraph" font-family="Liberation Sans, sans-serif" font-size="353px" font-weight="400"><tspan class="TextPosition" x="1965" y="7758"/><tspan class="TextPosition" x="1965" y="7758"><tspan fill="rgb(0,0,0)" stroke="none">0</tspan></tspan></tspan></text>
 <text class="TextShape"><tspan class="TextParagraph" font-family="Liberation Sans, sans-serif" font-size="353px" font-weight="400"><tspan class="TextPosition" x="3719" y="7758"/><tspan class="TextPosition" x="3719" y="7758"><tspan fill="rgb(0,0,0)" stroke="none">0.1</tspan></tspan></tspan></text>
 <text class="TextShape"><tspan class="TextParagraph" font-family="Liberation Sans, sans-serif" font-size="353px" font-weight="400"><tspan class="TextPosition" x="5619" y="7758"/><tspan class="TextPosition" x="5619" y="7758"><tspan fill="rgb(0,0,0)" stroke="none">0.2</tspan></tspan></tspan></text>
 <text class="TextShape"><tspan class="TextParagraph" font-family="Liberation Sans, sans-serif" font-size="353px" font-weight="400"><tspan class="TextPosition" x="7518" y="7758"/><tspan class="TextPosition" x="7518" y="7758"><tspan fill="rgb(0,0,0)" stroke="none">0.3</tspan></tspan></tspan></text>
 <text class="TextShape"><tspan class="TextParagraph" font-family="Liberation Sans, sans-serif" font-size="353px" font-weight="400"><tspan class="TextPosition" x="9418" y="7758"/><tspan class="TextPosition" x="9418" y="7758"><tspan fill="rgb(0,0,0)" stroke="none">0.4</tspan></tspan></tspan></text>
 <text class="TextShape"><tspan class="TextParagraph" font-family="Liberation Sans, sans-serif" font-size="353px" font-weight="400"><tspan class="TextPosition" x="11318" y="7758"/><tspan class="TextPosition" x="11318" y="7758"><tspan fill="rgb(0,0,0)" stroke="none">0.5</tspan></tspan></tspan></text>
 <text class="TextShape"><tspan class="TextParagraph" font-family="Liberation Sans, sans-serif" font-size="353px" font-weight="400"><tspan class="TextPosition" x="1623" y="7311"/><tspan class="TextPosition" x="1623" y="7311"><tspan fill="rgb(0,0,0)" stroke="none">0</tspan></tspan></tspan></text>
 <text class="TextShape"><tspan class="TextParagraph" font-family="Liberation Sans, sans-serif" font-size="353px" font-weight="400"><tspan class="TextPosition" x="1332" y="5948"/><tspan class="TextPosition" x="1332" y="5948"><tspan fill="rgb(0,0,0)" stroke="none">0.2</tspan></tspan></tspan></text>
 <text class="TextShape"><tspan class="TextParagraph" font-family="Liberation Sans, sans-serif" font-size="353px" font-weight="400"><tspan class="TextPosition" x="1332" y="4585"/><tspan class="TextPosition" x="1332" y="4585"><tspan fill="rgb(0,0,0)" stroke="none">0.4</tspan></tspan></tspan></text>
 <text class="TextShape"><tspan class="TextParagraph" font-family="Liberation Sans, sans-serif" font-size="353px" font-weight="400"><tspan class="TextPosition" x="1332" y="3223"/><tspan class="TextPosition" x="1332" y="3223"><tspan fill="rgb(0,0,0)" stroke="none">0.6</tspan></tspan></tspan></text>
 <text class="TextShape"><tspan class="TextParagraph" font-family="Liberation Sans, sans-serif" font-size="353px" font-weight="400"><tspan class="TextPosition" x="1332" y="1860"/><tspan class="TextPosition" x="1332" y="1860"><tspan fill="rgb(0,0,0)" stroke="none">0.8</tspan></tspan></tspan></text>
 <text class="TextShape"><tspan class="TextParagraph" font-family="Liberation Sans, sans-serif" font-size="353px" font-weight="400"><tspan class="TextPosition" x="1623" y="498"/><tspan class="TextPosition" x="1623" y="498"><tspan fill="rgb(0,0,0)" stroke="none">1</tspan></tspan></tspan></text>
 <path fill="none" stroke="rgb(0,69,134)" stroke-width="80" stroke-linejoin="round" d="M 12231,3503 L 13031,3503"/>
 <path fill="none" stroke="rgb(255,66,14)" stroke-width="80" stroke-linejoin="round" d="M 12231,4001 L 13031,4001"/>
 <path fill="none" stroke="rgb(255,211,32)" stroke-width="80" stroke-linejoin="round" d="M 12231,4499 L 13031,4499"/>
 <path fill="none" stroke="rgb(87,157,28)" stroke-width="80" stroke-linejoin="round" d="M 12231,4996 L 13031,4996"/>
 <path fill="none" stroke="rgb(126,0,33)" stroke-width="80" stroke-linejoin="round" d="M 12231,5494 L 13031,5494"/>
 <text class="TextShape"><tspan class="TextParagraph" font-family="Liberation Sans, sans-serif" font-size="353px" font-weight="400"><tspan class="TextPosition" x="13131" y="3623"/><tspan class="TextPosition" x="13131" y="3623"><tspan fill="rgb(0,0,0)" stroke="none">original</tspan></tspan></tspan></text>
 <text class="TextShape"><tspan class="TextParagraph" font-family="Liberation Sans, sans-serif" font-size="353px" font-weight="400"><tspan class="TextPosition" x="13131" y="4121"/><tspan class="TextPosition" x="13131" y="4121"><tspan fill="rgb(0,0,0)" stroke="none">greedy</tspan></tspan></tspan></text>
 <text class="TextShape"><tspan class="TextParagraph" font-family="Liberation Sans, sans-serif" font-size="353px" font-weight="400"><tspan class="TextPosition" x="13131" y="4618"/><tspan class="TextPosition" x="13131" y="4618"><tspan fill="rgb(0,0,0)" stroke="none">onion</tspan></tspan></tspan></text>
 <text class="TextShape"><tspan class="TextParagraph" font-family="Liberation Sans, sans-serif" font-size="353px" font-weight="400"><tspan class="TextPosition" x="13131" y="5116"/><tspan class="TextPosition" x="13131" y="5116"><tspan fill="rgb(0,0,0)" stroke="none">new 100 swaps</tspan></tspan></tspan></text>
 <text class="TextShape"><tspan class="TextParagraph" font-family="Liberation Sans, sans-serif" font-size="353px" font-weight="400"><tspan class="TextPosition" x="13131" y="5614"/><tspan class="TextPosition" x="13131" y="5614"><tspan fill="rgb(0,0,0)" stroke="none">new 1000 swaps</tspan></tspan></tspan></text>
 <text class="TextShape"><tspan class="TextParagraph" font-family="Liberation Sans, sans-serif" font-size="318px" font-weight="400"><tspan class="TextPosition" x="6470" y="8405"/><tspan class="TextPosition" x="6470" y="8405"><tspan fill="rgb(0,0,0)" stroke="none">q</tspan></tspan></tspan></text>
 <text class="TextShape" transform="translate(837,4313) rotate(-90) translate(-837,-4313)"><tspan class="TextParagraph" font-family="Liberation Sans, sans-serif" font-size="318px" font-weight="400"><tspan class="TextPosition" x="837" y="4313"/><tspan class="TextPosition" x="837" y="4313"><tspan fill="rgb(0,0,0)" stroke="none">S(q)</tspan></tspan></tspan></text>
</svg>